<?xml version="1.0" encoding="utf-8"?>
<!-- Generator: Adobe Illustrator 19.0.1, SVG Export Plug-In . SVG Version: 6.00 Build 0)  -->
<svg version="1.1" id="Layer_1" xmlns="http://www.w3.org/2000/svg" xmlns:xlink="http://www.w3.org/1999/xlink" x="0px" y="0px"
	 viewBox="-49 141 512 512" style="enable-background:new -49 141 512 512;" xml:space="preserve">
<path d="M357.7,381.8c-9.2,19-23.5,36.2-42.3,50.8c-36.1,27.9-85.1,43.2-138.1,43.2c-31.8,0-56.1-3.3-76.7-10.2
	c-0.7-0.2-1.4-0.6-2.2-0.8c-0.3-0.1-0.7-0.2-0.9-0.2c-5.2-1.5-10.7-2.3-16.2-2.3c-6.2,0-12.2,1-17.9,2.9l-0.3,0.1
	c-0.7,0.2-9.8,3.6-12.1,4.7L7.5,488.9c15.2-48.3,15.2-49.3,15.2-52.4c0-7.8-2.4-15.5-6.9-22.2c-0.6-0.8-1.1-1.5-1.8-2.3
	c-0.8-1-1.4-1.9-2-2.5c-19.1-24.1-29.3-51.8-29.3-80.3c-0.1-83.8,86.8-152,193.5-152c86.5,0,160,44.8,184.7,106.6
	c7.2,1,14,3.8,20,7.8c0.1,0,0.2,0.1,0.3,0.1c0.2-0.2,0.4-0.4,0.6-0.6c-21.5-75.3-105.4-131.4-205.7-131.4
	C59.5,159.6-35,235.6-35,329.3c0,33.8,12.3,65.2,33.4,91.6c1,1,3.2,4.2,4,5.4c0,0-1.1-1.8-1.2-2.1c2.5,3.6,4,7.8,4,12.3
	c0,1.5-19.7,63.8-19.7,63.8c-1.4,4.8,2.3,9.8,8.4,11c0.9,0.2,1.8,0.2,2.6,0.2c1.4,0,2.8-0.2,4.1-0.6l1.8-0.7L58,486.2
	c1-0.4,9.9-3.9,11-4.3c3.7-1.3,7.9-2,12.3-2c4,0,7.8,0.6,11.3,1.7c0.1,0,0.2,0,0.2,0.1c0.6,0.2,1.1,0.3,1.7,0.6
	c25.4,8.7,53.2,11.3,82.6,11.3c89.7,0,165.6-41.7,196-103.6C369.5,384.9,363.9,382.2,357.7,381.8z"/>
<g>
	<path d="M449,419c0-10.5,2.3-52.1-30.6-85.1c-22.1-22.3-50.4-33.5-89.9-35.3v-50.4L208,328.5l120.5,80.3v-50.1
		c25.1,0.7,39.1,5.7,54.4,12.5c19.4,8.7,34.7,27.5,47.6,48.1l12,19.6h6.5C449,432.6,448.9,424.5,449,419z M439.1,414.7
		c-29.9-50.7-63.5-66.1-120.6-66.1v40.7l-92.9-60.7l92.9-60.7v40.6C444.6,308.4,439.1,414.7,439.1,414.7z"/>
</g>
</svg>
